<svg width="777" height="311" viewBox="0 0 777 311" fill="none" xmlns="http://www.w3.org/2000/svg">
<g clip-path="url(#clip0_11_37)">
<path d="M99.999 199.5V141.5C104.799 113.9 126.666 109.333 137 110.5H182C220.5 110.5 236.5 181.5 174 185C175.5 231.5 115.5 245 99.999 199.5Z" fill="#01E37F" stroke="#01E37F"/>
<path d="M141.934 110.038L141.934 168.038C137.134 195.638 115.267 200.204 104.934 199.038L59.9336 199.038C21.4336 199.038 5.4336 128.038 67.9336 124.538C66.4336 78.0378 126.434 64.5378 141.934 110.038Z" fill="#8AED06" stroke="#8AED06"/>
<path d="M256.83 117.182V187H242.068V117.182H256.83ZM282.024 156.727V187H267.502V134.636H281.343V143.875H281.956C283.115 140.83 285.059 138.42 287.786 136.648C290.513 134.852 293.82 133.955 297.706 133.955C301.343 133.955 304.513 134.75 307.218 136.341C309.922 137.932 312.024 140.205 313.524 143.159C315.024 146.091 315.774 149.591 315.774 153.659V187H301.252V156.25C301.274 153.045 300.456 150.545 298.797 148.75C297.138 146.932 294.854 146.023 291.945 146.023C289.99 146.023 288.263 146.443 286.763 147.284C285.286 148.125 284.127 149.352 283.286 150.966C282.468 152.557 282.047 154.477 282.024 156.727ZM353.873 134.636V145.545H322.339V134.636H353.873ZM329.498 122.091H344.02V170.909C344.02 172.25 344.225 173.295 344.634 174.045C345.043 174.773 345.611 175.284 346.339 175.58C347.089 175.875 347.952 176.023 348.93 176.023C349.611 176.023 350.293 175.966 350.975 175.852C351.657 175.716 352.18 175.614 352.543 175.545L354.827 186.352C354.1 186.58 353.077 186.841 351.759 187.136C350.441 187.455 348.839 187.648 346.952 187.716C343.452 187.852 340.384 187.386 337.748 186.318C335.134 185.25 333.1 183.591 331.645 181.341C330.191 179.091 329.475 176.25 329.498 172.818V122.091ZM385.434 188.023C380.048 188.023 375.411 186.932 371.525 184.75C367.661 182.545 364.684 179.432 362.593 175.409C360.502 171.364 359.457 166.58 359.457 161.057C359.457 155.67 360.502 150.943 362.593 146.875C364.684 142.807 367.627 139.636 371.423 137.364C375.241 135.091 379.718 133.955 384.855 133.955C388.309 133.955 391.525 134.511 394.502 135.625C397.502 136.716 400.116 138.364 402.343 140.568C404.593 142.773 406.343 145.545 407.593 148.886C408.843 152.205 409.468 156.091 409.468 160.545V164.534H365.252V155.534H395.798C395.798 153.443 395.343 151.591 394.434 149.977C393.525 148.364 392.264 147.102 390.65 146.193C389.059 145.261 387.207 144.795 385.093 144.795C382.889 144.795 380.934 145.307 379.23 146.33C377.548 147.33 376.23 148.682 375.275 150.386C374.32 152.068 373.832 153.943 373.809 156.011V164.568C373.809 167.159 374.286 169.398 375.241 171.284C376.218 173.17 377.593 174.625 379.366 175.648C381.139 176.67 383.241 177.182 385.673 177.182C387.286 177.182 388.764 176.955 390.105 176.5C391.445 176.045 392.593 175.364 393.548 174.455C394.502 173.545 395.23 172.432 395.73 171.114L409.161 172C408.48 175.227 407.082 178.045 404.968 180.455C402.877 182.841 400.173 184.705 396.855 186.045C393.559 187.364 389.752 188.023 385.434 188.023ZM417.745 187V134.636H431.825V143.773H432.37C433.325 140.523 434.927 138.068 437.177 136.409C439.427 134.727 442.018 133.886 444.95 133.886C445.677 133.886 446.461 133.932 447.302 134.023C448.143 134.114 448.882 134.239 449.518 134.398V147.284C448.836 147.08 447.893 146.898 446.689 146.739C445.484 146.58 444.382 146.5 443.382 146.5C441.245 146.5 439.336 146.966 437.655 147.898C435.995 148.807 434.677 150.08 433.7 151.716C432.745 153.352 432.268 155.239 432.268 157.375V187H417.745ZM456.099 187V117.182H470.861V145.989H500.827V117.182H515.554V187H500.827V158.159H470.861V187H456.099ZM550.115 188.023C544.729 188.023 540.093 186.932 536.206 184.75C532.343 182.545 529.365 179.432 527.274 175.409C525.184 171.364 524.138 166.58 524.138 161.057C524.138 155.67 525.184 150.943 527.274 146.875C529.365 142.807 532.309 139.636 536.104 137.364C539.922 135.091 544.399 133.955 549.536 133.955C552.99 133.955 556.206 134.511 559.184 135.625C562.184 136.716 564.797 138.364 567.024 140.568C569.274 142.773 571.024 145.545 572.274 148.886C573.524 152.205 574.149 156.091 574.149 160.545V164.534H529.934V155.534H560.479C560.479 153.443 560.024 151.591 559.115 149.977C558.206 148.364 556.945 147.102 555.331 146.193C553.74 145.261 551.888 144.795 549.774 144.795C547.57 144.795 545.615 145.307 543.911 146.33C542.229 147.33 540.911 148.682 539.956 150.386C539.002 152.068 538.513 153.943 538.49 156.011V164.568C538.49 167.159 538.968 169.398 539.922 171.284C540.899 173.17 542.274 174.625 544.047 175.648C545.82 176.67 547.922 177.182 550.354 177.182C551.968 177.182 553.445 176.955 554.786 176.5C556.127 176.045 557.274 175.364 558.229 174.455C559.184 173.545 559.911 172.432 560.411 171.114L573.843 172C573.161 175.227 571.763 178.045 569.649 180.455C567.559 182.841 564.854 184.705 561.536 186.045C558.24 187.364 554.434 188.023 550.115 188.023ZM597.359 187.989C594.018 187.989 591.04 187.409 588.427 186.25C585.813 185.068 583.745 183.33 582.222 181.034C580.722 178.716 579.972 175.83 579.972 172.375C579.972 169.466 580.506 167.023 581.574 165.045C582.643 163.068 584.097 161.477 585.938 160.273C587.779 159.068 589.87 158.159 592.211 157.545C594.574 156.932 597.052 156.5 599.643 156.25C602.688 155.932 605.143 155.636 607.006 155.364C608.87 155.068 610.222 154.636 611.063 154.068C611.904 153.5 612.324 152.659 612.324 151.545V151.341C612.324 149.182 611.643 147.511 610.279 146.33C608.938 145.148 607.029 144.557 604.552 144.557C601.938 144.557 599.859 145.136 598.313 146.295C596.768 147.432 595.745 148.864 595.245 150.591L581.813 149.5C582.495 146.318 583.836 143.568 585.836 141.25C587.836 138.909 590.415 137.114 593.574 135.864C596.756 134.591 600.438 133.955 604.62 133.955C607.529 133.955 610.313 134.295 612.972 134.977C615.654 135.659 618.029 136.716 620.097 138.148C622.188 139.58 623.836 141.42 625.04 143.67C626.245 145.898 626.847 148.568 626.847 151.682V187H613.074V179.739H612.665C611.824 181.375 610.699 182.818 609.29 184.068C607.881 185.295 606.188 186.261 604.211 186.966C602.234 187.648 599.949 187.989 597.359 187.989ZM601.518 177.966C603.654 177.966 605.54 177.545 607.177 176.705C608.813 175.841 610.097 174.682 611.029 173.227C611.961 171.773 612.427 170.125 612.427 168.284V162.727C611.972 163.023 611.347 163.295 610.552 163.545C609.779 163.773 608.904 163.989 607.927 164.193C606.949 164.375 605.972 164.545 604.995 164.705C604.018 164.841 603.131 164.966 602.336 165.08C600.631 165.33 599.143 165.727 597.87 166.273C596.597 166.818 595.609 167.557 594.904 168.489C594.199 169.398 593.847 170.534 593.847 171.898C593.847 173.875 594.563 175.386 595.995 176.432C597.449 177.455 599.29 177.966 601.518 177.966ZM651.437 117.182V187H636.914V117.182H651.437ZM689.723 134.636V145.545H658.189V134.636H689.723ZM665.348 122.091H679.87V170.909C679.87 172.25 680.075 173.295 680.484 174.045C680.893 174.773 681.461 175.284 682.189 175.58C682.939 175.875 683.802 176.023 684.78 176.023C685.461 176.023 686.143 175.966 686.825 175.852C687.507 175.716 688.03 175.614 688.393 175.545L690.677 186.352C689.95 186.58 688.927 186.841 687.609 187.136C686.291 187.455 684.689 187.648 682.802 187.716C679.302 187.852 676.234 187.386 673.598 186.318C670.984 185.25 668.95 183.591 667.495 181.341C666.041 179.091 665.325 176.25 665.348 172.818V122.091ZM713.631 156.727V187H699.108V117.182H713.222V143.875H713.835C715.017 140.784 716.926 138.364 719.562 136.614C722.199 134.841 725.506 133.955 729.483 133.955C733.119 133.955 736.29 134.75 738.994 136.341C741.722 137.909 743.835 140.17 745.335 143.125C746.858 146.057 747.608 149.568 747.585 153.659V187H733.062V156.25C733.085 153.023 732.267 150.511 730.608 148.716C728.972 146.92 726.676 146.023 723.722 146.023C721.744 146.023 719.994 146.443 718.472 147.284C716.972 148.125 715.79 149.352 714.926 150.966C714.085 152.557 713.653 154.477 713.631 156.727Z" fill="#191C1D"/>
</g>
<defs>
<clipPath id="clip0_11_37">
<rect width="777" height="311" fill="white"/>
</clipPath>
</defs>
</svg>
